<?xml version="1.0" encoding="UTF-8"?><svg xmlns="http://www.w3.org/2000/svg" xmlns:xlink="http://www.w3.org/1999/xlink" height="202.6" preserveAspectRatio="xMidYMid meet" version="1.0" viewBox="94.2 112.6 236.8 202.6" width="236.8" zoomAndPan="magnify"><g id="change1_2"><path d="M130.711,312.64c-18.745,0-33.996-15.251-33.996-33.997V169.195c0-18.746,15.251-33.996,33.996-33.996 H294.49c18.745,0,33.996,15.25,33.996,33.996v109.448c0,18.746-15.251,33.997-33.996,33.997H130.711z" fill="#FFF"/></g><g id="change2_4"><path d="M294.49,137.699c17.395,0,31.496,14.101,31.496,31.496v109.448c0,17.396-14.102,31.497-31.496,31.497 H130.711c-17.396,0-31.496-14.101-31.496-31.497V169.195c0-17.396,14.1-31.496,31.496-31.496H294.49 M294.49,132.699H130.711 c-20.124,0-36.496,16.372-36.496,36.496v109.448c0,20.125,16.372,36.497,36.496,36.497H294.49 c20.124,0,36.496-16.372,36.496-36.497V169.195C330.986,149.071,314.614,132.699,294.49,132.699L294.49,132.699z" fill="#050607"/></g><g id="change1_3"><path d="M96.715,181.143v-11.948c0-18.746,15.251-33.996,33.996-33.996H294.49 c18.745,0,33.996,15.25,33.996,33.996v11.948H96.715z" fill="#FFF"/></g><g id="change2_5"><path d="M294.49,137.699c17.395,0,31.496,14.101,31.496,31.496v9.448H99.215v-9.448 c0-17.396,14.1-31.496,31.496-31.496H294.49 M294.49,132.699H130.711c-20.124,0-36.496,16.372-36.496,36.496v9.448v5h5h226.771 h5v-5v-9.448C330.986,149.071,314.614,132.699,294.49,132.699L294.49,132.699z" fill="#050607"/></g><g id="change1_4"><path d="M146.459,157.58c0,3.153-2.557,5.709-5.709,5.709l0,0c-3.152,0-5.709-2.556-5.709-5.709V120.77 c0-3.152,2.557-5.709,5.709-5.709l0,0c3.152,0,5.709,2.557,5.709,5.709V157.58z" fill="#FFF"/></g><g id="change2_6"><path d="M140.75,165.789c-4.526,0-8.209-3.683-8.209-8.209V120.77c0-4.526,3.683-8.209,8.209-8.209 s8.209,3.683,8.209,8.209v36.811C148.959,162.106,145.276,165.789,140.75,165.789z M140.75,117.561 c-1.77,0-3.209,1.439-3.209,3.209v36.811c0,1.77,1.439,3.209,3.209,3.209s3.209-1.439,3.209-3.209V120.77 C143.959,119,142.52,117.561,140.75,117.561z" fill="#050607"/></g><g id="change1_5"><path d="M192.914,157.58c0,3.153-2.555,5.709-5.707,5.709l0,0c-3.152,0-5.709-2.556-5.709-5.709V120.77 c0-3.152,2.557-5.709,5.709-5.709l0,0c3.152,0,5.707,2.557,5.707,5.709V157.58z" fill="#FFF"/></g><g id="change2_7"><path d="M187.207,165.789c-4.526,0-8.209-3.683-8.209-8.209V120.77c0-4.526,3.683-8.209,8.209-8.209 c4.525,0,8.207,3.683,8.207,8.209v36.811C195.414,162.106,191.732,165.789,187.207,165.789z M187.207,117.561 c-1.77,0-3.209,1.439-3.209,3.209v36.811c0,1.77,1.439,3.209,3.209,3.209c1.769,0,3.207-1.439,3.207-3.209V120.77 C190.414,119,188.976,117.561,187.207,117.561z" fill="#050607"/></g><g><g id="change1_1"><path d="M239.373,157.58c0,3.153-2.557,5.709-5.709,5.709l0,0c-3.154,0-5.709-2.556-5.709-5.709V120.77 c0-3.152,2.555-5.709,5.709-5.709l0,0c3.152,0,5.709,2.557,5.709,5.709V157.58z" fill="#FFF"/></g><g id="change2_1"><path d="M233.664,165.789c-4.526,0-8.209-3.683-8.209-8.209V120.77c0-4.526,3.683-8.209,8.209-8.209 s8.209,3.683,8.209,8.209v36.811C241.873,162.106,238.19,165.789,233.664,165.789z M233.664,117.561 c-1.77,0-3.209,1.439-3.209,3.209v36.811c0,1.77,1.439,3.209,3.209,3.209s3.209-1.439,3.209-3.209V120.77 C236.873,119,235.434,117.561,233.664,117.561z" fill="#050607"/></g></g><g><g id="change1_6"><path d="M285.828,157.58c0,3.153-2.557,5.709-5.709,5.709l0,0c-3.152,0-5.707-2.556-5.707-5.709V120.77 c0-3.152,2.555-5.709,5.707-5.709l0,0c3.152,0,5.709,2.557,5.709,5.709V157.58z" fill="#FFF"/></g><g id="change2_8"><path d="M280.119,165.789c-4.525,0-8.207-3.683-8.207-8.209V120.77c0-4.526,3.682-8.209,8.207-8.209 c4.526,0,8.209,3.683,8.209,8.209v36.811C288.328,162.106,284.646,165.789,280.119,165.789z M280.119,117.561 c-1.769,0-3.207,1.439-3.207,3.209v36.811c0,1.77,1.438,3.209,3.207,3.209c1.77,0,3.209-1.439,3.209-3.209V120.77 C283.328,119,281.889,117.561,280.119,117.561z" fill="#050607"/></g></g><g fill="#050607" id="change2_2"><path d="M151.758,230.711h-28.049c-3.197,0-5.799-2.602-5.799-5.8v-25.574c0-3.198,2.602-5.8,5.799-5.8h28.049 c3.198,0,5.801,2.602,5.801,5.8v25.574C157.559,228.109,154.956,230.711,151.758,230.711z M123.709,198.537 c-0.44,0-0.799,0.359-0.799,0.8v25.574c0,0.441,0.358,0.8,0.799,0.8h28.049c0.441,0,0.801-0.359,0.801-0.8v-25.574 c0-0.441-0.359-0.8-0.801-0.8H123.709z" fill="inherit"/><path d="M251.578,230.711h-28.047c-3.197,0-5.799-2.602-5.799-5.8v-25.574c0-3.198,2.602-5.8,5.799-5.8h28.047 c3.198,0,5.801,2.602,5.801,5.8v25.574C257.379,228.109,254.776,230.711,251.578,230.711z M223.531,198.537 c-0.44,0-0.799,0.359-0.799,0.8v25.574c0,0.441,0.358,0.8,0.799,0.8h28.047c0.441,0,0.801-0.359,0.801-0.8v-25.574 c0-0.441-0.359-0.8-0.801-0.8H223.531z" fill="inherit"/><path d="M301.492,230.711h-28.051c-3.197,0-5.799-2.602-5.799-5.8v-25.574c0-3.198,2.602-5.8,5.799-5.8h28.051 c3.198,0,5.801,2.602,5.801,5.8v25.574C307.293,228.109,304.69,230.711,301.492,230.711z M273.441,198.537 c-0.44,0-0.799,0.359-0.799,0.8v25.574c0,0.441,0.358,0.8,0.799,0.8h28.051c0.441,0,0.801-0.359,0.801-0.8v-25.574 c0-0.441-0.359-0.8-0.801-0.8H273.441z" fill="inherit"/><path d="M151.758,281.86h-28.049c-3.197,0-5.799-2.602-5.799-5.8v-25.574c0-3.198,2.602-5.8,5.799-5.8h28.049 c3.198,0,5.801,2.602,5.801,5.8v25.574C157.559,279.258,154.956,281.86,151.758,281.86z M123.709,249.686 c-0.44,0-0.799,0.359-0.799,0.8v25.574c0,0.441,0.358,0.8,0.799,0.8h28.049c0.441,0,0.801-0.359,0.801-0.8v-25.574 c0-0.441-0.359-0.8-0.801-0.8H123.709z" fill="inherit"/><path d="M201.67,281.86h-28.049c-3.198,0-5.801-2.602-5.801-5.8v-25.574c0-3.198,2.603-5.8,5.801-5.8h28.049 c3.197,0,5.799,2.602,5.799,5.8v25.574C207.469,279.258,204.867,281.86,201.67,281.86z M173.621,249.686 c-0.441,0-0.801,0.359-0.801,0.8v25.574c0,0.441,0.359,0.8,0.801,0.8h28.049c0.44,0,0.799-0.359,0.799-0.8v-25.574 c0-0.441-0.358-0.8-0.799-0.8H173.621z" fill="inherit"/><path d="M251.578,281.86h-28.047c-3.197,0-5.799-2.602-5.799-5.8v-25.574c0-3.198,2.602-5.8,5.799-5.8h28.047 c3.198,0,5.801,2.602,5.801,5.8v25.574C257.379,279.258,254.776,281.86,251.578,281.86z M223.531,249.686 c-0.44,0-0.799,0.359-0.799,0.8v25.574c0,0.441,0.358,0.8,0.799,0.8h28.047c0.441,0,0.801-0.359,0.801-0.8v-25.574 c0-0.441-0.359-0.8-0.801-0.8H223.531z" fill="inherit"/><path d="M301.492,281.86h-28.051c-3.197,0-5.799-2.602-5.799-5.8v-25.574c0-3.198,2.602-5.8,5.799-5.8h28.051 c3.198,0,5.801,2.602,5.801,5.8v25.574C307.293,279.258,304.69,281.86,301.492,281.86z M273.441,249.686 c-0.44,0-0.799,0.359-0.799,0.8v25.574c0,0.441,0.358,0.8,0.799,0.8h28.051c0.441,0,0.801-0.359,0.801-0.8v-25.574 c0-0.441-0.359-0.8-0.801-0.8H273.441z" fill="inherit"/></g><g id="change2_3"><path d="M184.557,228.404l-12.603-18.428c-0.779-1.14-0.487-2.695,0.652-3.475s2.694-0.487,3.475,0.652 l8.397,12.279l16.322-24.772c0.76-1.154,2.312-1.471,3.464-0.712s1.472,2.31,0.712,3.463L184.557,228.404z" fill="#050607"/></g></svg>