<?xml version="1.0" encoding="UTF-8"?><svg xmlns="http://www.w3.org/2000/svg" xmlns:xlink="http://www.w3.org/1999/xlink" height="201.4" preserveAspectRatio="xMidYMid meet" version="1.1" viewBox="80.0 113.8 248.2 201.4" width="248.2" zoomAndPan="magnify">
 <g id="surface1">
  <g id="change1_1"><path d="m188.14 272.93c-46.11-16.72-70.34-66.35-54.16-110.97l-26.94-25.79c-24.458 67.45 10.33 141.82 77.78 166.27l3.32-29.51" fill="#fff"/></g>
  <path d="m1881.4 1522.7c-461.1 167.2-703.4 663.5-541.6 1109.7l-269.4 257.9c-244.58-674.5 103.3-1418.2 777.8-1662.7zm0 0" fill="none" stroke="#15232e" stroke-linecap="round" stroke-linejoin="round" stroke-miterlimit="10" stroke-width="45" transform="matrix(.1 0 0 -.1 0 425.2)"/>
  <g id="change1_2"><path d="m1745.9 1495.6c7.7 74.1 42.4 145.5 103.1 198l396.9-458.2c-126.5-109.6-318-95.9-427.6 30.7" fill="#fff" stroke="#15232e" stroke-linecap="round" stroke-linejoin="round" stroke-miterlimit="10" stroke-width="45" transform="matrix(.1 0 0 -.1 0 425.2)"/></g>
  <g id="change1_3"><path d="m1156.5 2548.2c59.2-45.2 134.9-68.9 214.9-60.7l-61.7 603.1c-166.5-17-287.7-165.9-270.7-332.4" fill="#fff" stroke="#15232e" stroke-linecap="round" stroke-linejoin="round" stroke-miterlimit="10" stroke-width="45" transform="matrix(.1 0 0 -.1 0 425.2)"/></g>
  <g id="change1_4"><path d="m2589.5 1763.4c-315-223-457.5-148.1-457.5-148.1 181.8 82.7 184.3 242.4 174.4 316.2-73.3 83.7-117.3 189.8-117.3 305.3 0 270.2 239.7 489.1 535.4 489.1s535.3-218.9 535.3-489.1c0-270.1-239.6-489.1-535.3-489.1" fill="#fff" stroke="#15232e" stroke-linecap="round" stroke-linejoin="round" stroke-miterlimit="10" stroke-width="45" transform="matrix(.1 0 0 -.1 0 425.2)"/></g>
  <g id="change1_5"><path d="m250.41 205.1c0 4.14-3.36 7.5-7.51 7.5-4.14 0-7.5-3.36-7.5-7.5 0-4.15 3.36-7.51 7.5-7.51 4.15 0 7.51 3.36 7.51 7.51" fill="#fff"/></g>
  <path d="m2504.1 2201c0-41.4-33.6-75-75.1-75-41.4 0-75 33.6-75 75 0 41.5 33.6 75.1 75 75.1 41.5 0 75.1-33.6 75.1-75.1zm0 0" fill="none" stroke="#15232e" stroke-linecap="round" stroke-linejoin="round" stroke-miterlimit="10" stroke-width="45" transform="matrix(.1 0 0 -.1 0 425.2)"/>
  <g id="change1_6"><path d="m280.83 205.1c0 4.14-3.36 7.5-7.51 7.5-4.14 0-7.5-3.36-7.5-7.5 0-4.15 3.36-7.51 7.5-7.51 4.15 0 7.51 3.36 7.51 7.51" fill="#fff"/></g>
  <path d="m2808.3 2201c0-41.4-33.6-75-75.1-75-41.4 0-75 33.6-75 75 0 41.5 33.6 75.1 75 75.1 41.5 0 75.1-33.6 75.1-75.1zm0 0" fill="none" stroke="#15232e" stroke-linecap="round" stroke-linejoin="round" stroke-miterlimit="10" stroke-width="45" transform="matrix(.1 0 0 -.1 0 425.2)"/>
  <g id="change1_7"><path d="m309.86 205.1c0 4.14-3.36 7.5-7.5 7.5-4.15 0-7.51-3.36-7.51-7.5 0-4.15 3.36-7.51 7.51-7.51 4.14 0 7.5 3.36 7.5 7.51" fill="#fff"/></g>
  <path d="m3098.6 2201c0-41.4-33.6-75-75-75-41.5 0-75.1 33.6-75.1 75 0 41.5 33.6 75.1 75.1 75.1 41.4 0 75-33.6 75-75.1zm0 0" fill="none" stroke="#15232e" stroke-linecap="round" stroke-linejoin="round" stroke-miterlimit="10" stroke-width="45" transform="matrix(.1 0 0 -.1 0 425.2)"/>
 </g>
</svg>