<?xml version="1.0" encoding="UTF-8"?><svg xmlns="http://www.w3.org/2000/svg" xmlns:xlink="http://www.w3.org/1999/xlink" height="500.0" preserveAspectRatio="xMidYMid meet" version="1.1" viewBox="0.0 0.0 535.7 500.0" width="535.7" zoomAndPan="magnify">
 <defs>
  <clipPath id="clip1">
   <path d="m247 0h288.7v274h-288.7z"/>
  </clipPath>
  <clipPath id="clip2">
   <path d="m0 2h527v497.95h-527z"/>
  </clipPath>
 </defs>
 <g id="surface1">
  <g id="change1_1"><path d="m279.35 237.45c-0.4 2.8-0.4 5.2-0.2 6.9 0.3 3.3 0.5 6 2.5 7.8 1.2 1.1 2.6 1.5 3.5 1.6v3.5c-0.2 3.7 1.9 6.7 4.3 7.4 3.1 0.8 7.6-2.2 8-7.4-0.4-1.6-0.8-3.7-0.9-6.1-0.1-3 0.4-5.6 0.9-7.4 1.7-0.7 2.4-2.4 1.9-3.5-0.4-1-1.7-1.3-1.9-1.3-1.3-0.4-3.2-1.1-5.2-2.6-1.5-1.2-2.6-2.4-3.2-3.4-0.5 0.8-1.9 2.6-4.4 3.7-2.3 1.1-4.4 1-5.3 0.8zm-144.6 29.9l-23.3 129.1c2.5 0.7 5.8 1.4 9.6 1.7 4.2 0.3 7.7-0.1 10.4-0.6 4-15.9 7.9-32.5 11.5-49.9 4-19.5 7.4-38.3 10.2-56.3 1.7 34.8 3.3 69.5 5 104.3 2.4 0.6 5.2 1 8.3 1.3 4.7 0.3 8.9-0.1 12.1-0.6 0.9-17.9 1.3-36.6 1.3-56.1-0.1-26.2-1.1-51.1-2.8-74.5-6.5 1-13.9 1.8-22 2.1-7.4 0.2-14.2 0-20.3-0.5zm31.6-85.6c-1.2 1.5-1.4 3-1.5 3.7-1.2-0.5-2.6 0.1-3.1 1.4-0.5 1.2 0.1 2.6 1.4 3.1 0.1 1 0.2 3.4-1.5 5.2-1.3 1.4-3 1.8-5.4 2.2-2.3 0.4-4.3 0.3-5.5 0.2v5.8c1.2 0.6 3.5 1.4 6.5 1.4 2.8 0 5-0.8 6.3-1.4v-4.6c2.8 0.3 4.2-0.5 4.8-1 2-1.7 1.8-4.8 1.5-10.6-0.2-3.1-0.5-5.6-0.8-7.3-0.8 0.1-1.8 0.7-2.7 1.9zm149.7 93.1l-12 2.4-53.3 12.4-5.6 7.9 1 5.1 76.5 0.5 1.3-7.2zm-15.8 37.3l-27.5 1.7c-17.1-1.9-21.5 4.2-23.8 6.8s-3.7 12.4-3.7 12.4l0.6 32.7-0.7 30 17.6 0.8 2.6-62.6 5.8 1.5 1.9 61.1h17.8v-61.1l10.8-0.7 10.2-7.7 3.7-12.3zm-96.4-8.9v99.5h3.4v-93.4h135.5v93.4h34.7v-99.5zm85.3-98.1h-94.7v-66h94.7zm-94 18c-1.8 0-3.3 1.5-3.3 3.3v21.3c0 1.8 1.5 3.3 3.3 3.3h60.5c0.3 0 0.5 0.1 0.7 0.3l5 6.3-0.2-5.7c0-0.2 0.1-0.5 0.2-0.6 0.2-0.2 0.4-0.3 0.6-0.3 1.8 0 3.3-1.5 3.3-3.3v-21.3c0-1.8-1.5-3.3-3.3-3.3h-66.8" fill="#fff"/></g>
  <g id="change2_2"><path d="m194.85 204.25h93v-64.3h-93zm93.9 1.8h-94.7c-0.5 0-0.9-0.4-0.9-0.9v-66c0-0.5 0.4-0.9 0.9-0.9h94.7c0.5 0 0.9 0.4 0.9 0.9v66c-0.1 0.5-0.5 0.9-0.9 0.9zm-22.2 158.5l5.2-25.4v-0.3h31.6v0.3l5.9 25.4zm54.4 37.9l-14.8-63.5h7.9c1.1-0.4 1.9-1.3 2-2.3 0.2-1.5-1.2-3.2-3.4-3.4-2.4-0.4-4.8-0.7-7.1-1.1h-37.4l-4.2 2 1.3 4.8h3.9l-6.5 31.7c-0.1 0.7 0.3 1.4 1 1.5h0.3c0.6 0 1.1-0.4 1.3-1l0.8-3.9h44l8.4 35.9c0.1 0.6 0.7 1 1.3 1h0.3c0.6-0.3 1-1 0.9-1.7" fill="#0f0e0c"/></g>
  <g clip-path="url(#clip1)" id="change3_3">
   <path d="m371.25 43.25c-25.4-14.301-48.9-20.301-64.7-23 1.1-4.199 2.1-8.398 3.2-12.602-7.1-2.7964-17.3-5.9996-29.8-7.1988-13.3-1.1992-24.4 0.19924-32 1.8008 1 31.102 1.9 62.199 2.9 93.301 5.8 0.097 12.3 0.597 19.3 1.597 6 0.903 11.5 2 16.5 3.202 11.3 2.8 26.3 7.8 42.5 17.1 13.7 7.9 24.2 16.6 31.8 23.9 20-19.6 40-39.2 60-58.702-10.4-11.296-26.7-26.398-49.7-39.398zm164.1 230.3l-124.1-7.7c0.5-14.6-0.5-41.2-13.3-70.8-11.3-26.2-26.9-43.9-37.1-53.6 29.4-28.8 58.7-57.501 88.1-86.302 17.8 17.102 47.9 50.602 67.7 101.8 19 49 19.9 92.2 18.7 116.6" fill="#43b4be"/>
  </g>
  <g id="change3_1"><path d="m313.15 211.45v18.6l4.2-4.6h22.6v-14zm-118.2 35.3h68.5c-1.7-3.9-4.5-8.6-8-8.7-4-0.1-5.2 5.7-9.4 6.1-6.9 0.7-10.5-15.1-17.5-14.6-5.9 0.4-9.4 7.9-12.4 12.1-0.5 0.7-1 1.4-1.7 1.8-5.2 3.5-10.5-7.3-16.1-4.6-2.4 1.3-3.2 5-3.4 7.9zm45.2-66.5h-8.6v12.6h8.6zm12.1-3.5h-8.6v16.1h8.6zm11.8-7.3h-8.6v23.4h8.6zm12.3-14h-8.6v37.3h8.6zm-49 36.7h-8.6v-21.7h8.6v21.7" fill="#43b4be"/></g>
  <g id="change1_2"><path d="m216.35 171.05c4.6-6.4 7.1-9.5 7.6-9.2 0.4 0.2-0.7 3-3.4 8.2 0.5 0.1 5.4 1 5.6 3.1 0.1 0.6-0.3 1.2-2.4 3.4-1.5 1.6-2.8 2.9-3.8 3.8-0.7-0.6-1.5-1.2-2.6-1.8-0.8-0.6-1.7-0.9-2.5-1.2-0.1-1-0.2-2.4-0.4-4.2-0.5-4.5-1-6.6-0.6-6.7 0.2-0.1 0.8 0.7 2.5 4.6" fill="#fff"/></g>
  <g clip-path="url(#clip2)" id="change2_1">
   <path d="m318.15 222.05h18v-0.9h-18zm0-2.7h18v-0.9h-18zm18-3.6h-18v0.9h18zm-139.2 19.5c3.7-1.3 7.4-1.7 11.1-1.4 5.3 0.5 8.3 2.6 11.2 4.6 2.8 1.9 5.4 3.8 9.7 3.8h0.1c4.2 0 6.8-1.8 9.6-3.7 3-2 6-4.1 11.5-4.6 3.5-0.3 7 0.1 10.6 1.2 0.5 0.1 0.9-0.1 1.1-0.6 0.1-0.5-0.1-0.9-0.6-1.1-3.8-1.2-7.6-1.6-11.3-1.3-5.9 0.5-9.3 2.9-12.3 4.9-2.7 1.8-5 3.5-8.7 3.4-3.7 0-6-1.6-8.7-3.5-2.9-2-6.3-4.4-12.1-4.9-3.9-0.4-7.8 0.1-11.8 1.5-0.5 0.2-0.7 0.6-0.5 1.1s0.7 0.8 1.1 0.6zm65.1-12.1h-66.9c-1.8 0-3.3 1.5-3.3 3.3v21.3c0 1.8 1.5 3.3 3.3 3.3h60.5c0.3 0 0.5 0.1 0.7 0.3l5 6.3-0.2-5.7c0-0.2 0.1-0.5 0.2-0.6 0.2-0.2 0.4-0.3 0.6-0.3 1.8 0 3.3-1.5 3.3-3.3v-21.3c0.1-1.9-1.4-3.3-3.2-3.3zm-66.9-1.8h66.9c2.8 0 5.1 2.3 5.1 5.1v21.3c0 2.5-1.8 4.6-4.2 5l0.2 7.5c0 0.4-0.2 0.7-0.6 0.8-0.1 0-0.2 0.1-0.3 0.1-0.3 0-0.5-0.1-0.7-0.3l-6.4-8h-60.1c-2.8 0-5.1-2.3-5.1-5.1v-21.3c0.1-2.8 2.4-5.1 5.2-5.1zm94.7 174.5v-2h-16.2c0 0.7 0.1 1.3 0.1 2zm-5.2-3.8h5.1l-0.1-60.3c0-0.5 0.4-0.9 0.9-0.9s0.9 0.4 0.9 0.9v3c3.6 0.4 7.2-0.1 10.3-1.5 3.7-1.6 6.4-4.3 8.3-7.1l-18.7 0.2c-0.8 0-3.6 0-5.6 2.1-1 1-1.5 2.2-1.7 3zm-14.2-57.5c-0.1-1.9-0.2-3.8-0.5-5.7v-0.1c0-0.4-0.1-0.8-0.2-1.3-1.8-0.8-4.1-1.4-5.9-0.5-2.2 1.2-2.9 4.4-3.1 7-0.9 8.5-1.6 30.7-1.9 58.2h3.2l2.5-60.9c0-0.5 0.5-0.9 0.9-0.8 0.5 0 0.9 0.4 0.8 0.9l-0.1 2.2zm-8.6 61.3l0.1-2h-15.9c0 0.7 0 1.3-0.1 2zm29.6-59.3l0.1 56.4v3.8c0 0.2-0.1 0.5-0.3 0.6-0.2 0.2-0.4 0.3-0.6 0.3h-0.9v5.2h-23.2c0.3-0.7 0.7-1.7 1.6-2.4 1.1-0.9 2.2-1.2 3.4-1.5 0.9-0.3 2.1-0.7 3.4-1.2h-2.2c-0.5 0-0.8-0.4-0.9-0.8-0.5-10.3-1.1-20.5-1.8-30.3-0.4-5.6-0.2-11.3 0-16.9 0.2-4.3 0.3-8.8 0.2-13.2l-4.4-1.1-2.5 61.5c0 0.5-0.4 0.8-0.9 0.8h-1.6v5.2h-23.2c0.3-0.7 0.7-1.7 1.6-2.4 1.1-0.9 2.2-1.2 3.4-1.5 0.9-0.3 2.1-0.7 3.4-1.2h-1.3c-0.2 0-0.5-0.1-0.6-0.3-0.2-0.2-0.3-0.4-0.2-0.6 0.8-18.1 0.9-35.7 0.5-52.3v-1.2c-0.3-10.7-0.6-19.9 6-25.7 4.5-4.1 11.6-5.6 20.3-4.3 0.5 0.1 0.8 0.5 0.7 1s-0.5 0.8-1 0.7c-5.7-0.8-13.7-0.9-18.9 3.9-5.9 5.3-5.7 14.2-5.4 24.4v1.2c0.4 15.2 0.3 31.3-0.3 47.8h11c0.3-27.5 1-49.8 1.9-58.4 0.2-2 0.7-6.6 4.1-8.3 1.8-0.9 4-0.9 6.6 0.1-0.1-2.5 0.3-5.6 2.4-8.2 2.1-2.7 5.7-4.3 10.4-4.7 0.5 0 0.9 0.3 0.9 0.8s-0.3 0.9-0.8 0.9c-4.2 0.3-7.4 1.7-9.2 4-1.9 2.5-2.1 5.6-1.9 7.9 0.3 0.3 0.3 0.6 0.2 1 0 0 0 0.1-0.1 0.1 0 0.4 0.1 0.7 0.1 1v0.2c0.9 7 0.6 14.1 0.4 21-0.2 5.5-0.4 11.2 0 16.7 0.6 8.4 1.1 17 1.5 25.8h9.4l-0.7-60.7v-0.2c0.4-1.5 1.2-2.8 2.2-3.9 2.6-2.6 5.9-2.6 6.9-2.6l19.8-0.2c2.7-4.7 3.3-9.4 3.4-9.7 0.1-0.5 0.5-0.8 1-0.8 0.5 0.1 0.8 0.5 0.8 1 0 0.4-0.7 5.4-3.7 10.6 0 0.1-0.1 0.2-0.2 0.3-2.1 3.5-5.2 6.9-9.8 8.9-2.7 1.2-5.6 1.8-8.6 1.8-0.8-0.2-1.6-0.3-2.4-0.3zm85.2-32.4h-171.9v97.7h1.7v-92.5c0-0.5 0.4-0.9 0.9-0.9h135.5c0.5 0 0.9 0.4 0.9 0.9v92.5h33zm-129.7-1.7h8.4l-4.1-11.2c-1.1 1.2-2.1 2.5-3.1 3.8-1.8 2.3-2 2.9-2.1 3.5-0.3 1.4 0.3 2.8 0.9 3.9zm70.3-26.9c1.3 3.3 2.4 5.8 2.9 7l0.5 1.1c3.4 8.1 4.5 10.9 4.1 14.8-0.1 1.3-0.4 2.6-0.9 3.9h53.7c0.5 0 0.9 0.4 0.9 0.9v99.5c0 0.5-0.4 0.9-0.9 0.9h-34.7c-0.5 0-0.9-0.4-0.9-0.9v-92.5h-133.8v92.5c0 0.5-0.4 0.9-0.9 0.9h-3.4c-0.5 0-0.9-0.4-0.9-0.9v-99.5c0-0.5 0.4-0.9 0.9-0.9h41.1c-0.7-1.5-0.9-2.9-0.6-4.3 0.2-0.9 0.6-1.7 2.4-4.2 1.1-1.5 2.3-2.9 3.5-4.3 0.1-0.1 0.2-0.2 0.4-0.2l-7.3-20.3c12.4-0.1 24.7-0.1 37.1-0.2 3.4 10.8 6.8 21.7 10.2 32.5l21.9 0.2v0.7h9.6c0.5-1.3 0.8-2.7 1-4.1 0.3-3.5-0.8-6.1-4-13.9l-0.5-1.1c-0.5-1.3-1.6-3.8-2.9-7-0.2-0.4 0-1 0.5-1.1 0.3-0.1 0.8 0.1 1 0.5zm-11.8-35.6c-0.7-1.4-2.4-3.3-6.7-4.3-1.3-4.9-4.9-8.6-9.2-9.2-3.7-0.6-6.6 1.3-7.4 1.8-4.7 3.2-5 8.8-5 9.4 0.3 1.2 0.7 2.3 1 3.5 0 1.1 0 2.2 0.1 3.3 0.3 3.4 0.5 6.3 2.8 8.4 0.9 0.8 2 1.4 3.2 1.7v2.8c0 0.5 0.4 0.9 0.9 0.9s0.9-0.4 0.9-0.9v-3.5c0-0.4-0.3-0.8-0.7-0.9-1.2-0.2-2.3-0.7-3.1-1.4-1.8-1.6-1.9-4-2.2-7.3-0.2-1.9-0.1-3.9 0.1-5.9 1.3 0.1 3.1-0.1 4.9-0.9s3.2-2 4-3c0.8 1 1.7 1.8 2.7 2.6 1.6 1.3 3.5 2.2 5.5 2.7 0 0 1 0.2 1.2 0.8 0.3 0.7-0.2 1.9-1.4 2.4-0.2 0.1-0.4 0.3-0.5 0.6-0.7 2.5-1 5.1-0.9 7.7 0.1 2.1 0.4 4.2 0.9 6.3 0.1 0.4 0.5 0.6 0.8 0.6h0.2c0.4-0.1 0.6-0.4 0.6-0.7 2.4 0.3 6.9 1.3 11.2 4.8 1.9 1.6 3.4 3.3 4.5 5 2.5-0.8 3.1-1.6 3.2-2.2 0.2-1.3-2.2-1.8-3.5-4.3-1.5-2.8 0.4-4.5-1-6.8-1.6-2.7-4.5-1.4-6.3-4-2-3 1.1-6.4-0.8-10zm-25.6-92.4c-5.6-1.5-11-1.6-15.9-0.2-6.6 1.8-10 5.5-13.1 8.8-2.8 3-5.2 5.6-9.5 6.1-4.5 0.6-7.6-1.5-11.3-3.9-3.9-2.6-8.3-5.5-15-5.2-4.7 0.2-9.3 2-13.8 5.2-0.4 0.3-0.5 0.8-0.2 1.2s0.8 0.5 1.2 0.2c4.2-3 8.5-4.6 12.9-4.8 6.1-0.3 10.1 2.4 14 4.9 3.4 2.2 6.6 4.3 10.8 4.3 0.5 0 1.1 0 1.7-0.1 4.9-0.6 7.6-3.5 10.5-6.7 3-3.3 6.2-6.6 12.3-8.3 4.6-1.3 9.7-1.2 15 0.2 0.5 0.1 0.9-0.2 1.1-0.6 0-0.5-0.3-1-0.7-1.1zm-41.6 44.8h-8.6c-0.5 0-0.9 0.4-0.9 0.9s0.4 0.9 0.9 0.9h8.6c0.5 0 0.9-0.4 0.9-0.9s-0.4-0.9-0.9-0.9zm12 0h-8.6c-0.5 0-0.9 0.4-0.9 0.9s0.4 0.9 0.9 0.9h8.6c0.5 0 0.9-0.4 0.9-0.9s-0.4-0.9-0.9-0.9zm11.9 0h-8.6c-0.5 0-0.9 0.4-0.9 0.9s0.4 0.9 0.9 0.9h8.6c0.5 0 0.9-0.4 0.9-0.9s-0.5-0.9-0.9-0.9zm3.7 1.7h8.6c0.5 0 0.9-0.4 0.9-0.9s-0.4-0.9-0.9-0.9h-8.6c-0.5 0-0.9 0.4-0.9 0.9s0.4 0.9 0.9 0.9zm-28.5-15.4h-6.8v10.9h6.8zm1.8 11.7c0 0.5-0.4 0.9-0.9 0.9h-8.6c-0.5 0-0.9-0.4-0.9-0.9v-12.6c0-0.5 0.4-0.9 0.9-0.9h8.6c0.5 0 0.9 0.4 0.9 0.9zm10.3-15.2h-6.8v14.3h6.8zm1.7 15.2c0 0.5-0.4 0.9-0.9 0.9h-8.6c-0.5 0-0.9-0.4-0.9-0.9v-16.1c0-0.5 0.4-0.9 0.9-0.9h8.6c0.5 0 0.9 0.4 0.9 0.9zm10.1-22.5h-6.8v21.6h6.8zm1.7 22.5c0 0.5-0.4 0.9-0.9 0.9h-8.6c-0.5 0-0.9-0.4-0.9-0.9v-23.4c0-0.5 0.4-0.9 0.9-0.9h8.6c0.5 0 0.9 0.4 0.9 0.9zm3.8-0.9h6.8v-35.6h-6.8zm-1.8 0.9v-37.3c0-0.5 0.4-0.9 0.9-0.9h8.6c0.5 0 0.9 0.4 0.9 0.9v37.3c0 0.5-0.4 0.9-0.9 0.9h-8.6c-0.5 0-0.9-0.4-0.9-0.9zm-130.1 76.1c-0.5-0.1-0.9 0.2-1 0.7l-23.3 129.1c-0.1 0.4 0.2 0.9 0.6 1l3.6 0.9c0 0.9 0 1.8-0.1 2.7 1.2 0.5 2.8 1.1 4.6 1.4 2.7 0.5 5.1 0.5 6.8 0.4 0.3-1.2 0.7-2.5 1-3.7 1.5-0.1 3-0.3 4.5-0.6 0.3-0.1 0.6-0.3 0.7-0.6 4.2-16.5 8-33.3 11.5-49.9 3.3-15.9 6.3-32 8.9-48.1l4.6 95.9c0 0.4 0.3 0.7 0.7 0.8 1.2 0.3 2.5 0.5 3.8 0.7v5.5c8.7 0 17.5-0.1 26.2-0.1-0.2-0.9-0.5-2.2-1.6-3-1.2-1-2.7-0.8-4.1-0.8-1.5 0-3.5-0.3-6-1.4 0.8-0.1 1.7-0.2 2.5-0.4 0.4-0.1 0.7-0.4 0.7-0.8 0.9-18.6 1.3-37.5 1.3-56.2-0.1-24.8-1-49.9-2.8-74.6 0-0.5-0.4-0.8-0.9-0.8s-0.8 0.4-0.8 0.9c1.8 24.7 2.7 49.7 2.8 74.4 0.1 18.4-0.3 37-1.2 55.4-3.7 0.6-7.5 0.8-11.2 0.5-2.5-0.2-5.1-0.5-7.6-1.1l-5-103.6c0-0.4-0.4-0.8-0.8-0.8-0.5 0-0.8 0.3-0.9 0.7-2.9 18.8-6.4 37.7-10.2 56.3-3.4 16.4-7.2 33-11.3 49.3-3.2 0.5-6.4 0.7-9.7 0.5-2.9-0.2-5.8-0.7-8.7-1.4l23.1-128.4c0.1-0.2-0.2-0.7-0.7-0.8zm36-96.9c-1.2-0.5-2.1 0.7-5 1.1-2 0.3-2.7-0.1-5-0.2-1.5-0.1-6.1-0.3-9.9 2.2-1.1 0.7-3 2.2-4.4 5.1-0.7 0.4-1.7 1-2.3 2.2-1.1 2.4 0.8 5 3 10.2 0.7 1.6 1.6 4 2.5 7.1v0.2 5.8c0 0.5 0.4 0.9 0.9 0.9s0.9-0.4 0.9-0.9v-4.9c1.6 0.1 3.2 0 4.8-0.3 2.5-0.4 4.4-0.8 5.9-2.5 1.7-1.9 1.8-4.5 1.7-5.9 0-0.3-0.2-0.6-0.5-0.7-0.8-0.3-1.2-1.2-0.9-2 0.1-0.4 0.4-0.7 0.8-0.8 0.4-0.2 0.8-0.2 1.2 0 0.3 0.1 0.5 0.1 0.8-0.1 0.2-0.1 0.4-0.4 0.4-0.7 0.1-0.8 0.4-2 1.3-3.2 0.3-0.4 0.7-0.8 1.2-1.1 0.3 2 0.5 4 0.6 6 0.4 5.7 0.5 8.6-1.2 9.9-0.9 0.8-2.3 1.1-4.1 0.8-0.2 0-0.5 0-0.7 0.2s-0.3 0.4-0.3 0.6v4.6c0 0.5 0.4 0.9 0.9 0.9s0.9-0.4 0.9-0.9v-3.7c1.9 0.1 3.4-0.4 4.5-1.3 2.3-2 2.1-5.5 1.8-11.4-0.1-2.3-0.4-4.6-0.8-6.8 1-1.1 2.2-2.8 2.5-5.1 0.2-1.4 0.1-4.6-1.5-5.3zm334.4-8.7c-14.6-37.8-37.7-72.6-66.9-100.9l-40.1 39.3-46.8 45.8 0.8 0.8c0.5 0.5 1 1 1.5 1.4 0.4 0.4 0.7 0.8 1.1 1.1 0.6 0.6 1.2 1.3 1.8 1.9 0.3 0.3 0.5 0.6 0.8 0.9 0.7 0.7 1.4 1.5 2 2.3l0.6 0.6c0.8 0.9 1.5 1.7 2.3 2.6 0.1 0.1 0.2 0.2 0.3 0.4 1.7 2 3.4 4.1 5 6.2 0.1 0.1 0.1 0.2 0.2 0.3 0.7 0.9 1.4 1.9 2.1 2.8 0.2 0.2 0.4 0.5 0.5 0.7 0.6 0.8 1.2 1.7 1.8 2.5 0.2 0.3 0.3 0.5 0.5 0.8 0.6 0.9 1.2 1.7 1.7 2.6 0.1 0.2 0.3 0.4 0.4 0.6 0.6 1 1.3 2 1.9 3 0 0.1 0.1 0.2 0.1 0.2 16.8 27.2 25.6 59 24.6 91.9l122.4 7.6c1.9-39-4.5-78.9-18.6-115.4zm-96.2-74.498c-14.2-15.301-30.6-28.301-48.8-38.602-19.8-11.102-41.2-18.801-63.6-22.801l-4.6 18.102-15 60.399c1.6 0.4 3.2 0.9 4.8 1.3 0.6 0.2 1.1 0.3 1.7 0.5 0.9 0.3 1.9 0.6 2.8 0.9 0.8 0.2 1.6 0.5 2.4 0.8 0.4 0.1 0.7 0.2 1.1 0.4 1.9 0.7 3.8 1.3 5.7 2.1 0.5 0.2 0.9 0.4 1.4 0.5 1 0.4 1.9 0.8 2.9 1.2 0.4 0.1 0.7 0.3 1.1 0.5 1.7 0.7 3.4 1.5 5.1 2.2 0.5 0.3 1.1 0.5 1.6 0.8 0.8 0.4 1.7 0.8 2.5 1.2 0.7 0.4 1.4 0.7 2.1 1.1 1.1 0.6 2.2 1.1 3.3 1.7 0.8 0.5 1.7 0.9 2.5 1.4 0.3 0.2 0.7 0.4 1 0.5 0.3 0.2 0.7 0.4 1 0.6 0.6 0.4 1.2 0.7 1.8 1.1s1.2 0.7 1.8 1.1c1.2 0.7 2.3 1.5 3.5 2.2 0.4 0.2 0.7 0.5 1.1 0.7l2.7 1.8c0.4 0.3 0.8 0.6 1.2 0.8 0.9 0.6 1.8 1.3 2.6 1.9 0.3 0.2 0.7 0.5 1 0.7l3.6 2.7 0.1 0.1 3.3 2.7c0.4 0.3 0.7 0.6 1.1 0.9 0.8 0.7 1.5 1.3 2.3 2 0.4 0.4 0.8 0.7 1.2 1.1 0.8 0.7 1.5 1.4 2.3 2.1 0.3 0.3 0.6 0.5 0.8 0.8zm-113.9-62.602l3-11.898c-9.3-3.602-19-5.9028-28.9-6.8012-10.4-1-20.8-0.4024-31.1 1.6992l2.8 91.699c11.4 0.301 22.9 1.901 34.1 4.601h0.2zm230.5 253.6c0 0.2-0.1 0.4-0.3 0.6-0.2 0.1-0.4 0.2-0.6 0.2h-0.1l-52.2-3.2c-1.1 23.5-5.8 46.7-13.9 69-21.5 59.3-64.8 106.8-121.9 133.6-31.9 14.9-65.9 22.4-100.1 22.4-27.1 0-54.3-4.7-80.5-14.2-59.296-21.5-106.8-64.8-133.6-121.9-26.798-57.1-29.7-121.3-8.196-180.6 16.797-46.6 47.098-85.898 87.596-113.9 39.6-27.401 85.9-41.998 133.9-42.1 0.5 0 0.9 0.398 0.9 0.898s-0.4 0.903-0.9 0.903c-98.1 0.199-186.4 62.398-219.8 154.7-43.997 121.6 19.101 256.3 140.7 300.3 58.9 21.3 122.6 18.4 179.3-8.2s99.7-73.7 121-132.6c8-22.2 12.7-45.2 13.8-68.6l-69.3-4.3c-0.4 10-1.8 20.2-4.1 30.3-0.1 0.5-0.6 0.8-1 0.6-0.5-0.1-0.8-0.6-0.6-1 2.4-10.3 3.7-20.5 4.1-30.7v-0.1c0.8-24.1-3.7-48.4-13.2-70.5-3.2-7.5-7-14.7-11.2-21.6 0-0.1-0.1-0.1-0.1-0.2-0.6-1-1.3-2.1-2-3.1-0.1-0.1-0.2-0.3-0.3-0.4-0.6-1-1.3-1.9-2-2.9-0.1-0.1-0.2-0.3-0.3-0.4-1.5-2.2-3.1-4.3-4.7-6.5 0-0.1-0.1-0.1-0.1-0.2-0.8-1-1.5-1.9-2.3-2.9-0.2-0.2-0.4-0.4-0.5-0.6-0.7-0.8-1.3-1.6-2-2.4-0.2-0.3-0.4-0.5-0.7-0.8-0.6-0.7-1.3-1.5-1.9-2.2-0.2-0.3-0.5-0.5-0.7-0.8-0.6-0.7-1.3-1.4-1.9-2.1l-0.9-0.9-1.8-1.8c-0.4-0.4-0.7-0.8-1.1-1.1l-1.3-1.3c-0.5-0.5-1-1-1.6-1.5-1-0.9-2-1.9-3-2.8-0.3-0.3-0.7-0.6-1-0.9l-2.4-2.1c-0.4-0.3-0.7-0.6-1.1-0.9-0.9-0.8-1.8-1.5-2.7-2.2-0.2-0.2-0.5-0.4-0.7-0.6-1.2-0.9-2.3-1.8-3.5-2.7-0.3-0.2-0.5-0.4-0.8-0.6-0.9-0.7-1.9-1.4-2.8-2.1-0.4-0.3-0.8-0.6-1.2-0.8-0.9-0.6-1.7-1.2-2.6-1.8-0.4-0.3-0.8-0.5-1.2-0.8-1.1-0.8-2.3-1.5-3.5-2.2-0.6-0.4-1.2-0.7-1.7-1-0.6-0.4-1.3-0.8-1.9-1.2s-1.3-0.7-1.9-1.1c-0.9-0.5-1.8-1-2.6-1.5-1-0.5-2-1.1-3.1-1.6-0.7-0.4-1.5-0.8-2.2-1.1l-2.4-1.2c-0.6-0.3-1.2-0.5-1.7-0.8-1.5-0.7-3.1-1.4-4.6-2-0.5-0.2-1-0.4-1.4-0.6-0.9-0.4-1.9-0.8-2.8-1.1l-1.5-0.6c-0.8-0.3-1.7-0.6-2.5-0.9s-1.6-0.5-2.3-0.8c-0.6-0.2-1.3-0.4-1.9-0.7-0.8-0.3-1.6-0.5-2.3-0.8-1-0.3-2.1-0.6-3.1-1-0.5-0.1-0.9-0.3-1.4-0.4-1.7-0.5-3.4-0.9-5.2-1.4-5.4-1.3-10.9-2.4-16.4-3.2-6.3-0.9-12.8-1.4-19.2-1.6h-0.2c-24.9-0.599-49.7 4.6-72.9 15.5-40 18.5-69.898 51.3-84.8 92.3-20.098 55.6-8.5 118 30.2 162.7 0.3 0.4 0.3 0.9-0.1 1.2-0.2 0.1-0.4 0.2-0.6 0.2s-0.5-0.1-0.7-0.3c-39.198-45.2-50.898-108.2-30.499-164.4 15-41.5 45.299-74.6 85.199-93.3 23.2-10.9 48-16.101 72.9-15.698l-2.9-92.403c0-0.3982 0.3-0.8006 0.7-0.8982 10.6-2.1992 21.5-2.8008 32.3-1.8008 10.3 1 20.4 3.3984 30.1 7.199 0.4 0.199 0.6 0.602 0.5 1l-2.8 11.801c22.6 4 44.1 11.699 64 23 18.3 10.301 34.9 23.398 49.2 38.898l27.5-26.898c0.3-0.301 0.9-0.301 1.2 0 29.6 28.5 53.1 63.8 67.9 102.1 14.3 36.9 20.8 77.3 18.8 117zm-320.4-95.9c-0.5 0-0.9 0.4-0.9 0.9v4.6c0 0.5 0.4 0.9 0.9 0.9s0.9-0.4 0.9-0.9v-3.8h2.4c0.5 0 0.9-0.4 0.9-0.9s-0.4-0.9-0.9-0.9zm16.6-12.1c0.8 0.2 1.8 0.5 2.6 0.9v-2.4h-1.9c-0.2 0.5-0.4 1-0.7 1.5zm4.4 21c0 0.5-0.4 0.9-0.9 0.9h-7.2c-0.5 0-0.9-0.4-0.9-0.9s0.4-0.9 0.9-0.9h6.4v-12.5c-1.2 1.3-2.5 2.6-3.8 3.9-0.2 0.2-0.4 0.2-0.6 0.2s-0.5-0.1-0.6-0.3c-0.3-0.3-0.3-0.9 0-1.2 1.3-1.2 2.5-2.5 3.7-3.8 1.1-1.2 2.2-2.4 2.1-2.7-0.1-0.9-2.6-1.9-4.9-2.3-0.3 0-0.5-0.2-0.6-0.5-0.1-0.2-0.1-0.5 0-0.8 1.1-2.2 1.9-3.8 2.4-4.9-1.1 1.3-2.7 3.4-5.1 6.8-0.2 0.3-0.5 0.4-0.8 0.4s-0.6-0.2-0.7-0.5c-0.2-0.5-0.4-0.9-0.6-1.3 0.1 0.8 0.2 1.8 0.4 3 0.2 1.4 0.3 2.9 0.4 4.3 0 0.5-0.3 0.9-0.8 0.9s-0.9-0.3-0.9-0.8c-0.1-1.4-0.2-2.8-0.4-4.2-0.2-1.6-0.3-2.9-0.5-4-0.4-2.7-0.5-3.4 0.5-3.7 0.7-0.2 1.2 0.1 2.3 2.3v-0.8c0-0.5 0.4-0.9 0.9-0.9h2c4.4-5.8 4.9-5.6 5.6-5.1 0.7 0.4 1 0.9-1 5.1h1.9c0.5 0 0.9 0.4 0.9 0.9v4.4c0.5 0.4 0.8 1 0.8 1.6 0.1 0.6-0.1 1.2-0.8 2.1zm0 2.8c0 0.5-0.4 0.9-0.9 0.9h-8.6c-0.5 0-0.9-0.4-0.9-0.9s0.4-0.9 0.9-0.9h8.6c0.5 0.1 0.9 0.5 0.9 0.9" fill="#0f0e0c"/>
  </g>
  <g id="change3_2"><path d="m150.65 203.25c-4.2 0.2-13.1 1.4-19.4 8.1-1.8 2-4 4.9-7.1 15.4-1.9 6.2-4.1 15-5.4 26.1 1.6 1.3 3.9 2.9 6.9 4.2 3.6 1.5 6.8 2.1 9.1 2.3v7.9c6.1 0.5 12.9 0.7 20.3 0.4 8.1-0.3 15.5-1.1 22-2.1-0.8-14-1.6-27.9-2.4-41.9 6.7-1.7 12.2-3.4 16.2-4.7 10.3-3.4 12.5-5.1 13.9-6.2 2.2-1.8 4-4 8.3-12.3 2.4-4.6 5.5-10.9 8.8-18.6-0.9-1-2.5-2.5-4.8-3.8-2-1-3.7-1.5-5-1.7-5.4 8.3-10.8 16.6-16.3 24.8-5.2 1.1-11.5 2-18.6 2.3-5.1 0.2-9.7 0-13.8-0.4-1.2 0.5-3.4 1.3-6.3 1.4-2.9 0.2-5.1-0.6-6.4-1.2zm122.9 106.1c0 0.5-0.2 1.5-0.8 2.6s-1.4 1.7-1.9 2c6.6-0.4 13.7-0.7 21.3-0.5 8.4 0.1 16.1 0.7 23.3 1.5l-1.8-5.5c-13.4-0.1-26.7-0.1-40.1-0.1zm17-45.2c3.4 0.4 7-2.6 6.9-6.8 2 0.2 7.2 1 12 4.9 5.6 4.6 7.2 10.5 7.7 12.4l-13.2 2.7 5.3 17.1-20.7 1-8.2-26.3-16.4 0.1c2.1-2.1 5.3-5 9.7-7.4 4.5-2.5 8.6-3.7 11.5-4.3-0.1 3.3 2.4 6.3 5.4 6.6" fill="#43b4be"/></g>
 </g>
</svg>